<svg width="420" height="328" viewBox="0 0 420 328" fill="none" xmlns="http://www.w3.org/2000/svg">
<path d="M99.2808 79.678L23.6815 135.1L86.7915 106.915C93.5772 103.889 101.666 105.372 106.927 110.609L252.189 255.356L263.877 246.783C265.611 245.514 266.657 243.638 266.819 241.493C266.98 239.354 266.233 237.341 264.708 235.828L108.727 80.3929C106.168 77.8431 102.192 77.5453 99.2808 79.684V79.678Z" fill="#D0D8EE"/>
<path d="M91.1978 116.703L14.3191 151.042L82.3256 142.976C87.8498 142.32 93.2784 144.191 97.2123 148.111L224.903 275.349L228.753 279.186L232.603 283.022L239.521 289.915L252.076 284.309C254.288 283.32 255.812 281.39 256.249 279.007C256.691 276.63 255.956 274.289 254.24 272.579L251.107 269.457L247.257 265.621L243.407 261.784L99.3108 118.193C97.1884 116.078 93.93 115.482 91.1978 116.703V116.703Z" fill="#D0D8EE"/>
<path d="M83.599 153.627L6.42738 162.784C4.7474 162.986 3.27069 163.701 2.15269 164.815C1.39341 165.572 0.795551 166.519 0.4189 167.609C-0.51376 170.296 0.131928 173.09 2.14671 175.104L150.111 322.544L151.635 324.063L153.459 325.88C155.043 327.458 157.231 328.215 159.455 327.947L162.791 327.548L170.474 326.636L173.631 326.261L188.404 324.51L236.633 318.784C239.461 318.451 241.709 316.646 242.641 313.965C243.574 311.278 242.928 308.478 240.914 306.471L237.165 302.735L233.088 298.672L229.01 294.609L223.833 289.45L219.983 285.614L216.132 281.777L89.5956 155.689C88.0112 154.11 85.8231 153.353 83.5931 153.621L83.599 153.627Z" fill="#D0D8EE"/>
<path d="M175.364 5.89548C173.684 6.09803 172.208 6.81292 171.09 7.92695C170.33 8.68355 169.733 9.63077 169.35 10.721C168.417 13.4018 169.063 16.2018 171.078 18.2154L174.826 21.9507L223.594 0.17041L175.364 5.89548V5.89548Z" fill="#D0D8EE"/>
<path d="M183.776 38.4407L188.165 35.2237L214.237 16.1123L182.993 30.0646L177.732 32.4118L172.477 34.759L159.922 40.3649C159.085 40.7402 158.349 41.2466 157.728 41.8662C156.711 42.8789 156.018 44.1896 155.743 45.667C155.306 48.044 156.036 50.3912 157.752 52.101L160.884 55.2227L179.394 41.6577L183.782 38.4407H183.776Z" fill="#D0D8EE"/>
<path d="M252.434 1.42741L195.865 42.8969L191.477 46.1139L187.088 49.3309L168.585 62.9019L164.196 66.1189L159.808 69.3359L148.12 77.9086C147.809 78.135 147.522 78.3792 147.259 78.6473C146.039 79.8626 145.316 81.4413 145.179 83.1988C145.017 85.3375 145.764 87.3511 147.289 88.8643L303.27 244.287C305.829 246.837 309.799 247.135 312.717 245.002L388.316 189.58L408.84 174.538L417.037 168.527C418.364 167.556 419.285 166.227 419.715 164.696C419.847 164.231 419.937 163.743 419.978 163.237C420.14 161.098 419.393 159.084 417.868 157.571L417.174 156.88L415.291 155.003L409.845 149.576L261.881 2.13634C259.322 -0.413426 255.346 -0.717254 252.434 1.42146V1.42741Z" fill="#D0D8EE"/>
</svg>
