<svg width="100" height="77" viewBox="0 0 100 77" fill="none" xmlns="http://www.w3.org/2000/svg">
<path d="M23.6384 18.7049L5.63855 31.7155L20.6647 25.099C22.2804 24.3885 24.2063 24.7368 25.459 25.9661L60.0451 59.9464L62.828 57.9339C63.2408 57.636 63.4899 57.1954 63.5283 56.692C63.5668 56.1899 63.3888 55.7172 63.0259 55.362L25.8874 18.8727C25.2782 18.2741 24.3316 18.2042 23.6384 18.7063V18.7049Z" fill="white"/>
<path d="M21.7138 27.3968L3.40939 35.458L19.6014 33.5644C20.9167 33.4105 22.2092 33.8497 23.1458 34.7699L53.5484 64.6399L54.4651 65.5405L55.3818 66.4412L57.0288 68.0593L60.0181 66.7433C60.5447 66.5111 60.9077 66.058 61.0116 65.4986C61.117 64.9405 60.9419 64.3909 60.5334 63.9895L59.7875 63.2567L58.8707 62.356L57.954 61.4554L23.6455 27.7464C23.1402 27.25 22.3644 27.1101 21.7138 27.3968V27.3968Z" fill="white"/>
<path d="M19.9045 36.0649L1.53033 38.2145C1.13033 38.262 0.778735 38.4299 0.512545 38.6914C0.331764 38.869 0.189417 39.0914 0.099738 39.3473C-0.122324 39.978 0.0314113 40.634 0.511122 41.1067L35.7407 75.7191L36.1036 76.0757L36.5378 76.5023C36.915 76.8729 37.436 77.0505 37.9655 76.9875L38.7598 76.8938L40.589 76.6799L41.3406 76.5918L44.858 76.1806L56.3412 74.8366C57.0145 74.7583 57.5497 74.3345 57.7717 73.7052C57.9938 73.0744 57.8401 72.4171 57.3604 71.9458L56.4678 71.0689L55.497 70.1151L54.5262 69.1613L53.2935 67.9502L52.3768 67.0495L51.4601 66.1489L21.3323 36.5488C20.955 36.1782 20.4341 36.0006 19.9031 36.0635L19.9045 36.0649Z" fill="white"/>
<path d="M41.7535 1.384C41.3535 1.43155 41.0019 1.59938 40.7357 1.8609C40.5549 2.03852 40.4126 2.26089 40.3214 2.51682C40.0994 3.14616 40.2531 3.80347 40.7328 4.27618L41.6254 5.15306L53.2366 0.0400085L41.7535 1.384V1.384Z" fill="white"/>
<path d="M43.7563 9.0242L44.8012 8.26899L51.0089 3.78248L43.5699 7.05785L42.3172 7.60888L41.066 8.1599L38.0767 9.47593C37.8774 9.56403 37.7023 9.68291 37.5543 9.82836C37.3123 10.0661 37.1472 10.3738 37.0817 10.7206C36.9778 11.2786 37.1514 11.8297 37.56 12.231L38.3059 12.9639L42.7129 9.77941L43.7578 9.0242H43.7563Z" fill="white"/>
<path d="M60.1035 0.335094L46.6346 10.0703L45.5898 10.8255L44.5449 11.5807L40.1393 14.7666L39.0945 15.5218L38.0496 16.277L35.2667 18.2895C35.1927 18.3427 35.1244 18.4 35.0618 18.4629C34.7714 18.7482 34.5991 19.1189 34.5664 19.5314C34.528 20.0335 34.7059 20.5062 35.0689 20.8614L72.2073 57.3479C72.8165 57.9465 73.7617 58.0164 74.4564 57.5157L92.4562 44.5051L97.343 40.9738L99.2945 39.5627C99.6106 39.3347 99.8298 39.0229 99.9323 38.6634C99.9636 38.5543 99.9849 38.4397 99.9949 38.3208C100.033 37.8187 99.8554 37.346 99.4924 36.9908L99.3273 36.8285L98.8789 36.388L97.5821 35.1139L62.3526 0.50152C61.7433 -0.0970544 60.7967 -0.16838 60.1035 0.333695V0.335094Z" fill="white"/>
</svg>
