<svg width="308" height="108" viewBox="0 0 308 108" fill="none" xmlns="http://www.w3.org/2000/svg">
<g clip-path="url(#clip0_16_208)">
<path d="M162.99 72.6099C155.61 72.6099 149.81 70.5199 145.6 66.3299C141.39 62.1399 139.28 56.0199 139.28 47.9599V16.9299H148.47V47.6299C148.47 53.4399 149.74 57.6799 152.28 60.3499C154.82 63.0199 158.42 64.3499 163.08 64.3499C167.74 64.3499 171.34 63.0099 173.88 60.3499C176.42 57.6799 177.69 53.4399 177.69 47.6299V16.9299H186.72V47.9499C186.72 56.0099 184.63 62.1399 180.44 66.3199C176.25 70.5099 170.44 72.5999 163.01 72.5999L162.99 72.6099Z" fill="#323232"/>
<path d="M201.78 71.8999V16.9299H227.14C233.58 16.9299 238.51 18.2099 241.94 20.7799C245.37 23.3499 247.08 26.8299 247.08 31.2199C247.08 34.1499 246.41 36.6499 245.08 38.7199C243.75 40.7899 241.98 42.3699 239.78 43.4699C237.58 44.5699 235.23 45.1199 232.71 45.1199L234.12 42.4499C237.1 42.4499 239.79 42.9999 242.17 44.0999C244.55 45.1999 246.44 46.8399 247.82 49.0099C249.21 51.1799 249.9 53.8399 249.9 56.9799C249.9 61.6899 248.12 65.3599 244.56 67.9699C241 70.5899 235.71 71.8999 228.7 71.8999H201.77H201.78ZM210.97 64.4399H228.17C232.2 64.4399 235.28 63.7699 237.4 62.4399C239.52 61.1099 240.58 58.9999 240.58 56.1199C240.58 53.2399 239.52 51.1999 237.4 49.8399C235.28 48.4799 232.2 47.7999 228.17 47.7999H210.27V40.3399H226.13C229.85 40.3399 232.73 39.6899 234.77 38.3799C236.81 37.0699 237.83 35.0599 237.83 32.3299C237.83 29.5999 236.81 27.7399 234.77 26.3999C232.73 25.0699 229.85 24.3999 226.13 24.3999H210.98V64.4499L210.97 64.4399Z" fill="#323232"/>
<path d="M286.42 72.61C282.23 72.61 278.34 71.92 274.76 70.53C271.17 69.14 268.07 67.18 265.46 64.64C262.84 62.1 260.8 59.12 259.34 55.69C257.87 52.26 257.14 48.51 257.14 44.42C257.14 40.33 257.87 36.58 259.34 33.15C260.8 29.72 262.86 26.74 265.5 24.2C268.14 21.66 271.26 19.7 274.84 18.31C278.43 16.92 282.31 16.23 286.5 16.23C290.9 16.23 294.93 16.98 298.59 18.47C302.25 19.96 305.34 22.17 307.86 25.11L301.89 31C299.9 28.8 297.64 27.17 295.1 26.09C292.56 25.02 289.83 24.48 286.89 24.48C283.95 24.48 281.18 24.96 278.72 25.93C276.26 26.9 274.11 28.29 272.28 30.09C270.45 31.9 269.03 34.02 268.04 36.45C267.04 38.88 266.55 41.54 266.55 44.42C266.55 47.3 267.05 49.96 268.04 52.39C269.03 54.82 270.45 56.94 272.28 58.75C274.11 60.56 276.26 61.94 278.72 62.91C281.18 63.88 283.9 64.36 286.89 64.36C289.88 64.36 292.56 63.82 295.1 62.75C297.64 61.68 299.9 60.02 301.89 57.76L307.86 63.65C305.35 66.58 302.26 68.81 298.59 70.32C294.93 71.84 290.87 72.6 286.42 72.6V72.61Z" fill="#323232"/>
<path d="M143.99 100.52C142.52 100.52 141.37 100.1 140.53 99.2699C139.69 98.4399 139.27 97.2199 139.27 95.6099V89.4399H141.1V95.5499C141.1 96.7099 141.35 97.5499 141.86 98.0799C142.37 98.6099 143.08 98.8799 144.01 98.8799C144.94 98.8799 145.65 98.6099 146.16 98.0799C146.67 97.5499 146.92 96.7099 146.92 95.5499V89.4399H148.72V95.6099C148.72 97.2099 148.3 98.4299 147.47 99.2699C146.64 100.1 145.48 100.52 144 100.52H143.99Z" fill="#323232"/>
<path d="M150.16 100.38L154.75 94.0799V95.4899L150.41 89.4399H152.49L155.82 94.0199L154.98 94.0399L158.29 89.4499H160.27L155.94 95.3999V94.0599L160.55 100.39H158.43L154.92 95.5199H155.75L152.28 100.39H150.17L150.16 100.38Z" fill="#323232"/>
<path d="M166.52 100.38V89.4399H171.57C172.85 89.4399 173.83 89.6999 174.51 90.2099C175.19 90.7199 175.53 91.4099 175.53 92.2899C175.53 92.8699 175.4 93.3699 175.13 93.7799C174.86 94.1899 174.51 94.5099 174.08 94.7199C173.64 94.9399 173.17 95.0499 172.67 95.0499L172.95 94.5199C173.54 94.5199 174.08 94.6299 174.55 94.8499C175.02 95.0699 175.4 95.3899 175.67 95.8299C175.95 96.2599 176.08 96.7899 176.08 97.4199C176.08 98.3599 175.73 99.0899 175.02 99.6099C174.31 100.13 173.26 100.39 171.86 100.39H166.5L166.52 100.38ZM168.35 98.8999H171.77C172.57 98.8999 173.18 98.7699 173.61 98.4999C174.03 98.2299 174.24 97.8199 174.24 97.2399C174.24 96.6599 174.03 96.2599 173.61 95.9899C173.19 95.7199 172.58 95.5799 171.77 95.5799H168.21V94.0999H171.37C172.11 94.0999 172.68 93.9699 173.09 93.7099C173.5 93.4499 173.7 93.0499 173.7 92.5099C173.7 91.9699 173.5 91.5999 173.09 91.3299C172.68 91.0599 172.11 90.9299 171.37 90.9299H168.36V98.8999H168.35Z" fill="#323232"/>
<path d="M181.84 100.47C180.99 100.47 180.23 100.29 179.57 99.92C178.91 99.56 178.39 99.05 178.01 98.41C177.62 97.77 177.43 97.04 177.43 96.22C177.43 95.4 177.62 94.64 178.01 94.01C178.4 93.38 178.92 92.88 179.57 92.52C180.22 92.16 180.98 91.97 181.84 91.97C182.7 91.97 183.44 92.15 184.1 92.52C184.76 92.88 185.28 93.38 185.66 94.01C186.04 94.64 186.23 95.38 186.23 96.22C186.23 97.06 186.04 97.77 185.66 98.41C185.28 99.05 184.76 99.55 184.1 99.92C183.44 100.28 182.69 100.47 181.84 100.47ZM181.84 98.94C182.34 98.94 182.79 98.83 183.18 98.61C183.57 98.39 183.88 98.08 184.1 97.67C184.32 97.26 184.44 96.78 184.44 96.23C184.44 95.68 184.33 95.2 184.1 94.79C183.88 94.38 183.57 94.06 183.18 93.84C182.79 93.62 182.34 93.51 181.84 93.51C181.34 93.51 180.89 93.62 180.5 93.84C180.11 94.06 179.8 94.37 179.57 94.79C179.34 95.2 179.23 95.68 179.23 96.23C179.23 96.78 179.34 97.26 179.57 97.67C179.8 98.08 180.11 98.4 180.5 98.61C180.89 98.82 181.34 98.94 181.84 98.94Z" fill="#323232"/>
<path d="M191.86 100.47C191.01 100.47 190.25 100.29 189.59 99.92C188.93 99.56 188.41 99.05 188.03 98.41C187.64 97.77 187.45 97.04 187.45 96.22C187.45 95.4 187.64 94.64 188.03 94.01C188.42 93.38 188.94 92.88 189.59 92.52C190.24 92.16 191 91.97 191.86 91.97C192.72 91.97 193.46 92.15 194.12 92.52C194.78 92.88 195.3 93.38 195.68 94.01C196.06 94.64 196.25 95.38 196.25 96.22C196.25 97.06 196.06 97.77 195.68 98.41C195.3 99.05 194.78 99.55 194.12 99.92C193.46 100.28 192.71 100.47 191.86 100.47ZM191.86 98.94C192.36 98.94 192.81 98.83 193.2 98.61C193.59 98.39 193.9 98.08 194.12 97.67C194.34 97.26 194.46 96.78 194.46 96.23C194.46 95.68 194.35 95.2 194.12 94.79C193.9 94.38 193.59 94.06 193.2 93.84C192.81 93.62 192.36 93.51 191.86 93.51C191.36 93.51 190.91 93.62 190.52 93.84C190.13 94.06 189.82 94.37 189.59 94.79C189.36 95.2 189.25 95.68 189.25 96.23C189.25 96.78 189.36 97.26 189.59 97.67C189.82 98.08 190.13 98.4 190.52 98.61C190.91 98.82 191.36 98.94 191.86 98.94Z" fill="#323232"/>
<path d="M198.2 100.38V88.7898H199.97V100.38H198.2ZM199.64 98.4698L199.69 96.2198L204.2 92.0498H206.34L202.64 95.7398L201.69 96.5398L199.64 98.4798V98.4698ZM204.51 100.38L201.37 96.5098L202.49 95.0998L206.66 100.38H204.5H204.51Z" fill="#323232"/>
<path d="M217.46 100.52C216.63 100.52 215.85 100.38 215.14 100.11C214.43 99.8298 213.81 99.4398 213.29 98.9398C212.77 98.4298 212.36 97.8398 212.07 97.1598C211.78 96.4798 211.63 95.7298 211.63 94.9198C211.63 94.1098 211.78 93.3598 212.07 92.6798C212.36 91.9998 212.77 91.3998 213.3 90.8998C213.83 90.3898 214.45 89.9998 215.16 89.7298C215.87 89.4498 216.65 89.3198 217.48 89.3198C218.35 89.3198 219.16 89.4698 219.89 89.7698C220.62 90.0698 221.23 90.5098 221.73 91.0898L220.54 92.2598C220.14 91.8198 219.69 91.4998 219.19 91.2798C218.68 91.0698 218.14 90.9598 217.56 90.9598C216.98 90.9598 216.42 91.0598 215.94 91.2498C215.45 91.4398 215.02 91.7198 214.66 92.0798C214.3 92.4398 214.01 92.8598 213.82 93.3498C213.62 93.8298 213.52 94.3598 213.52 94.9398C213.52 95.5198 213.62 96.0398 213.82 96.5298C214.02 97.0098 214.3 97.4398 214.66 97.7998C215.02 98.1598 215.45 98.4398 215.94 98.6298C216.43 98.8198 216.97 98.9198 217.56 98.9198C218.15 98.9198 218.69 98.8098 219.19 98.5998C219.7 98.3898 220.15 98.0598 220.54 97.6098L221.73 98.7798C221.23 99.3598 220.62 99.8098 219.89 100.11C219.16 100.41 218.35 100.56 217.47 100.56L217.46 100.52Z" fill="#323232"/>
<path d="M223.61 100.38V88.7898H225.38V100.38H223.61Z" fill="#323232"/>
<path d="M231.6 100.47C230.88 100.47 230.25 100.34 229.71 100.08C229.17 99.8198 228.75 99.4198 228.44 98.8798C228.14 98.3398 227.99 97.6498 227.99 96.8198V92.0598H229.76V96.6198C229.76 97.3798 229.94 97.9498 230.3 98.3298C230.66 98.7098 231.17 98.8998 231.84 98.8998C232.31 98.8998 232.73 98.7998 233.09 98.6098C233.45 98.4198 233.74 98.1298 233.93 97.7398C234.13 97.3498 234.23 96.8798 234.23 96.2998V92.0498H236.01V100.38H234.31V98.1598L234.61 98.8498C234.33 99.3698 233.92 99.7698 233.38 100.05C232.84 100.33 232.25 100.47 231.61 100.47H231.6Z" fill="#323232"/>
<path d="M238.69 100.38V88.7898H240.46V94.0998L240.3 96.2098L240.38 98.2998V100.38H238.69ZM243.19 100.47C242.49 100.47 241.86 100.32 241.3 100.01C240.74 99.6998 240.29 99.2298 239.97 98.5998C239.65 97.9698 239.49 97.1798 239.49 96.2198C239.49 95.2598 239.66 94.4498 239.99 93.8298C240.32 93.2098 240.77 92.7398 241.33 92.4298C241.89 92.1198 242.51 91.9698 243.19 91.9698C244.01 91.9698 244.74 92.1398 245.38 92.4898C246.02 92.8398 246.51 93.3298 246.88 93.9698C247.24 94.6098 247.43 95.3498 247.43 96.2198C247.43 97.0898 247.25 97.8198 246.88 98.4498C246.52 99.0898 246.02 99.5798 245.38 99.9298C244.74 100.28 244.02 100.46 243.19 100.46V100.47ZM243.03 98.9398C243.53 98.9398 243.97 98.8298 244.36 98.6098C244.75 98.3898 245.06 98.0798 245.29 97.6698C245.52 97.2598 245.64 96.7798 245.64 96.2298C245.64 95.6798 245.52 95.1998 245.29 94.7898C245.06 94.3798 244.75 94.0598 244.36 93.8398C243.97 93.6198 243.53 93.5098 243.03 93.5098C242.53 93.5098 242.1 93.6198 241.71 93.8398C241.32 94.0598 241.01 94.3698 240.77 94.7898C240.54 95.1998 240.42 95.6798 240.42 96.2298C240.42 96.7798 240.54 97.2598 240.77 97.6698C241 98.0798 241.32 98.3998 241.71 98.6098C242.1 98.8198 242.54 98.9398 243.03 98.9398Z" fill="#323232"/>
<path d="M256.03 100.38V91.04H252.36V89.45H261.55V91.04H257.88V100.38H256.04H256.03Z" fill="#323232"/>
<path d="M264.99 100.47C264.37 100.47 263.82 100.37 263.35 100.16C262.88 99.95 262.52 99.66 262.27 99.29C262.02 98.92 261.9 98.48 261.9 97.99C261.9 97.53 262.01 97.12 262.22 96.76C262.43 96.4 262.79 96.1 263.3 95.88C263.81 95.66 264.48 95.54 265.32 95.54H267.8V96.77H265.39C264.69 96.77 264.23 96.88 263.99 97.11C263.76 97.34 263.64 97.61 263.64 97.92C263.64 98.29 263.79 98.59 264.09 98.81C264.39 99.03 264.8 99.14 265.32 99.14C265.84 99.14 266.29 99.03 266.69 98.8C267.09 98.57 267.38 98.23 267.56 97.78L267.87 98.98C267.67 99.45 267.33 99.81 266.84 100.07C266.35 100.33 265.74 100.46 265 100.46L264.99 100.47ZM267.63 100.38V98.68L267.55 98.32V95.37C267.55 94.78 267.37 94.31 267.02 93.98C266.67 93.65 266.12 93.48 265.4 93.48C264.93 93.48 264.47 93.56 264.02 93.71C263.57 93.87 263.18 94.07 262.86 94.32L262.13 93.01C262.57 92.68 263.09 92.42 263.71 92.24C264.32 92.06 264.96 91.97 265.63 91.97C266.81 91.97 267.72 92.25 268.36 92.82C269.01 93.39 269.33 94.26 269.33 95.44V100.38H267.64H267.63Z" fill="#323232"/>
<path d="M272.82 90.5999C272.49 90.5999 272.21 90.4999 271.99 90.2899C271.77 90.0799 271.66 89.8199 271.66 89.4899C271.66 89.1899 271.77 88.9299 271.99 88.7199C272.21 88.5099 272.48 88.4099 272.82 88.4099C273.16 88.4099 273.42 88.5099 273.64 88.7099C273.86 88.9099 273.98 89.1599 273.98 89.4599C273.98 89.7899 273.87 90.0699 273.65 90.2799C273.43 90.4899 273.16 90.5999 272.82 90.5999ZM271.93 100.38V92.0499H273.7V100.38H271.93Z" fill="#323232"/>
<path d="M278.18 100.38L275.1 92.0498H276.79L279.46 99.4498H278.68L281.46 92.0498H282.96L285.66 99.4498H284.89L287.62 92.0498H289.21L286.12 100.38H284.42L281.9 93.7398H282.43L279.87 100.38H278.17H278.18Z" fill="#323232"/>
<path d="M292.85 100.47C292.23 100.47 291.68 100.37 291.21 100.16C290.74 99.95 290.38 99.66 290.13 99.29C289.88 98.92 289.76 98.48 289.76 97.99C289.76 97.53 289.87 97.12 290.08 96.76C290.29 96.4 290.65 96.1 291.16 95.88C291.67 95.66 292.34 95.54 293.18 95.54H295.66V96.77H293.25C292.55 96.77 292.09 96.88 291.85 97.11C291.62 97.34 291.5 97.61 291.5 97.92C291.5 98.29 291.65 98.59 291.95 98.81C292.25 99.03 292.66 99.14 293.18 99.14C293.7 99.14 294.15 99.03 294.55 98.8C294.95 98.57 295.24 98.23 295.42 97.78L295.73 98.98C295.53 99.45 295.19 99.81 294.7 100.07C294.21 100.33 293.6 100.46 292.86 100.46L292.85 100.47ZM295.49 100.38V98.68L295.41 98.32V95.37C295.41 94.78 295.23 94.31 294.88 93.98C294.53 93.65 293.98 93.48 293.26 93.48C292.79 93.48 292.33 93.56 291.88 93.71C291.43 93.87 291.04 94.07 290.72 94.32L289.99 93.01C290.43 92.68 290.95 92.42 291.57 92.24C292.18 92.06 292.82 91.97 293.49 91.97C294.67 91.97 295.58 92.25 296.22 92.82C296.87 93.39 297.19 94.26 297.19 95.44V100.38H295.5H295.49Z" fill="#323232"/>
<path d="M304.36 91.97C305.04 91.97 305.64 92.1 306.16 92.35C306.69 92.61 307.1 93 307.4 93.54C307.7 94.08 307.85 94.77 307.85 95.61V100.37H306.07V95.82C306.07 95.05 305.89 94.47 305.53 94.09C305.17 93.71 304.65 93.52 303.98 93.52C303.5 93.52 303.08 93.62 302.71 93.82C302.34 94.02 302.05 94.3 301.85 94.68C301.65 95.06 301.55 95.54 301.55 96.13V100.36H299.78V92.03H301.47V94.28L301.19 93.58C301.47 93.05 301.89 92.65 302.45 92.37C303.01 92.09 303.65 91.96 304.36 91.96V91.97Z" fill="#323232"/>
<path d="M48.53 5.03L15.52 0L38.52 8.76C40.99 9.7 42.65 12.11 42.65 14.76V87.85L47.76 88.63C48.52 88.75 49.25 88.53 49.84 88.03C50.42 87.53 50.74 86.83 50.74 86.07V7.58C50.74 6.29 49.82 5.22 48.54 5.02L48.53 5.03Z" fill="#EA5A3E"/>
<path d="M37.15 12.3399L9.14001 1.66992L28.29 16.7399C29.85 17.9599 30.74 19.7999 30.74 21.7799V93.3999L35.31 95.1399C36.12 95.4499 36.99 95.3399 37.7 94.8499C38.41 94.3599 38.82 93.5799 38.82 92.7199V14.7599C38.82 13.6899 38.15 12.7199 37.15 12.3399Z" fill="#EA5A3E"/>
<path d="M25.91 19.7501L4.19 2.65009C3.72 2.28009 3.16 2.09009 2.6 2.09009C2.22 2.09009 1.83 2.18009 1.46 2.36009C0.55 2.80009 0 3.67009 0 4.69009V80.8201C0 81.6201 0.36 82.3601 0.99 82.8501L1.93 83.5901L4.09 85.2901L4.98 85.9901L9.14 89.2601L22.72 99.9501C23.52 100.58 24.54 100.69 25.45 100.24C26.36 99.8001 26.91 98.9301 26.91 97.9101V21.7801C26.91 20.9801 26.55 20.2401 25.92 19.7501H25.91Z" fill="#EA5A3E"/>
<path d="M86.3 5.53998C85.83 5.16998 85.27 4.97998 84.71 4.97998C84.33 4.97998 83.94 5.06998 83.57 5.24998C82.66 5.68998 82.11 6.55998 82.11 7.57998V9.46998L99.87 16.24L86.29 5.54998L86.3 5.53998Z" fill="#EA5A3E"/>
<path d="M80.2001 15.8699L82.1201 16.1599L93.5001 17.8899L82.1201 13.5499L80.2001 12.8199L78.2801 12.0899L73.7101 10.3499C73.4101 10.2299 73.0901 10.1799 72.7801 10.1799C72.2701 10.1799 71.7601 10.3399 71.3201 10.6399C70.6101 11.1299 70.2001 11.9099 70.2001 12.7699V14.3499L78.2801 15.5799L80.2001 15.8699Z" fill="#EA5A3E"/>
<path d="M106.82 23.8001L82.12 20.0401L80.2 19.7501L78.28 19.4601L70.2 18.2301L68.28 17.9401L66.36 17.6501L61.25 16.8701C61.12 16.8501 60.98 16.8401 60.85 16.8401C60.24 16.8401 59.65 17.0601 59.18 17.4701C58.6 17.9701 58.28 18.6701 58.28 19.4301V97.9101C58.28 99.2001 59.2 100.27 60.48 100.47L93.49 105.5L102.45 106.87L106.03 107.41C106.61 107.5 107.18 107.39 107.67 107.12C107.82 107.04 107.97 106.93 108.1 106.82C108.68 106.32 109 105.62 109 104.86V26.3601C109 25.0701 108.08 24.0001 106.8 23.8001H106.82Z" fill="#EA5A3E"/>
</g>
<defs>
<clipPath id="clip0_16_208">
<rect width="307.86" height="107.44" fill="white"/>
</clipPath>
</defs>
</svg>
